<?xml version="1.0" encoding="UTF-8"?><svg id="a" xmlns="http://www.w3.org/2000/svg" viewBox="0 0 97 97"><defs><style>.b,.c{fill:#77836f;}.c{font-family:Clip, Clip;font-size:10.79px;}.d{fill:#ede6da;}</style></defs><circle class="d" cx="48.43" cy="48.47" r="48.86"/><g><path class="b" d="M12.86,66.48l4.65-2.43,.24,.46-4.65,2.43-.24-.46Zm1.3,2.49l1.86-2.49,.62,.03-2.19,3.01-.29-.55Zm.04-2.66l.5-.4,4.01,.46,.29,.55-4.8-.61Z"/><path class="b" d="M15.75,71.59l5.14-1.88,.38,.5-3.26,4.4-.35-.46,2.97-3.85-4.54,1.75-.35-.46Zm1.49-.13l.39-.29,1.36,1.82-.39,.29-1.36-1.82Z"/><path class="b" d="M19.97,76.8l3.64-3.77,.36,.35-1.44,4.88-.09-.12,3.11-3.23,.37,.36-3.64,3.77-.37-.36,1.43-4.91,.1,.17-3.11,3.22-.37-.36Z"/><path class="b" d="M25.72,81.72l2.82-4.04,.43,.3-2.82,4.04-.43-.3Zm1.66-4.65l.28-.4,2.56,1.79-.28,.4-2.56-1.79Z"/><path class="b" d="M32.63,79.82l-2.47,4.63-.46-.25,2.47-4.63,.46,.25Z"/><path class="b" d="M33.14,85.88l1.84-4.91,.47,.18,.62,5.05-.13-.08,1.57-4.2,.49,.18-1.83,4.91-.48-.18-.64-5.08,.15,.11-1.57,4.19-.48-.18Z"/><path class="b" d="M38.92,87.82l2.56-4.84,.62,.12,.53,5.45-.57-.11-.38-4.85-2.19,4.34-.57-.11Zm1.01-1.1l.09-.47,2.23,.44-.09,.47-2.23-.44Z"/><path class="b" d="M50.83,88.91c-.31,.02-.59-.03-.82-.15-.24-.12-.42-.3-.56-.54s-.22-.53-.24-.87l-.12-2.05c-.02-.34,.02-.64,.13-.89,.11-.25,.27-.45,.49-.6,.22-.15,.49-.23,.8-.25,.29-.02,.55,.03,.77,.14,.23,.11,.41,.27,.55,.49,.14,.22,.23,.48,.27,.79l-.52,.03c-.03-.21-.1-.39-.2-.53s-.22-.26-.37-.33-.31-.1-.49-.09c-.31,.02-.55,.14-.71,.35-.17,.22-.24,.51-.22,.87l.12,2.05c.02,.36,.13,.63,.32,.83s.44,.28,.75,.27c.27-.02,.48-.12,.65-.3s.26-.44,.28-.77l.52-.03c0,.31-.06,.59-.18,.82-.12,.23-.28,.42-.49,.55-.21,.13-.46,.21-.75,.22Z"/><path class="b" d="M54.84,88.45l.44-5.46,.61-.13,2.63,4.8-.56,.12-2.26-4.3-.3,4.85-.56,.12Zm.5-1.41l-.1-.47,2.22-.48,.1,.47-2.22,.48Z"/><path class="b" d="M58.98,82.57l-.17-.45,2.93-1.09,.17,.45-2.93,1.09Zm2.87,4.01l-1.71-4.62,.49-.18,1.71,4.62-.49,.18Z"/><path class="b" d="M66.15,84.74l-2.52-4.6,.46-.25,2.52,4.6-.46,.25Zm-1.97-4.35l-.23-.42,2.15-1.18,.23,.42-2.15,1.18Zm1.15,2.1l-.23-.42,1.9-1.04,.23,.42-1.9,1.04Zm1.13,2.07l-.23-.42,2.15-1.18,.23,.42-2.15,1.18Z"/><path class="b" d="M71.2,81.71l-3.2-4.16,.41-.32,3.2,4.16-.41,.32Zm-1.1-1.95l-.29-.38,1.1-.84c.21-.16,.33-.35,.35-.57,.03-.22-.04-.44-.21-.65l-.17-.22c-.17-.22-.36-.35-.58-.38-.22-.03-.44,.03-.65,.19l-1.1,.84-.29-.38,1.07-.82c.23-.18,.46-.29,.7-.33s.46-.02,.67,.07,.41,.25,.58,.47l.19,.24c.17,.22,.27,.45,.31,.68,.03,.23,0,.46-.1,.67-.1,.22-.26,.41-.5,.59l-1.07,.82Zm3.2,.33l-2.21-1.31,.27-.42,2.42,1.35-.49,.37Z"/><path class="b" d="M72.73,73.51l3.71,3.71-.37,.37-3.71-3.71,.37-.37Z"/><path class="b" d="M78.67,74.8l-4.16-3.19,.31-.4,5.01,.88-.11,.1-3.56-2.73,.32-.41,4.16,3.19-.31,.41-5.04-.87,.15-.11,3.55,2.73-.31,.41Z"/><path class="b" d="M80.72,66.82l.73-1.37,1.01,.54c.32,.17,.56,.37,.72,.59,.16,.22,.24,.46,.24,.72,0,.26-.08,.54-.24,.84-.16,.3-.35,.53-.56,.68-.21,.15-.45,.22-.71,.22-.26,0-.54-.09-.84-.25l-1.89-1.01c-.32-.17-.56-.37-.72-.58-.16-.22-.24-.46-.24-.72s.08-.54,.24-.84c.15-.28,.33-.49,.53-.62,.2-.14,.44-.2,.7-.2s.55,.07,.87,.22l-.27,.5c-.33-.14-.61-.18-.84-.12s-.42,.21-.55,.47c-.16,.3-.19,.57-.1,.81,.09,.25,.3,.46,.64,.64l1.89,1.01c.31,.17,.58,.21,.83,.14,.24-.07,.45-.26,.61-.56,.16-.29,.19-.56,.1-.8-.09-.24-.3-.45-.64-.63l-.6-.32-.48,.89-.42-.23Z"/></g><text class="c" transform="translate(17.59 36.31) rotate(-62.62)"><tspan x="0" y="0">C</tspan></text><text class="c" transform="translate(20.98 29.8) rotate(-49.01)"><tspan x="0" y="0">O</tspan></text><text class="c" transform="translate(26.59 23.55) rotate(-35.46)"><tspan x="0" y="0">C</tspan></text><text class="c" transform="translate(32.62 19.35) rotate(-22.88)"><tspan x="0" y="0">K</tspan></text><text class="c" transform="translate(39.22 16.62) rotate(-10.22)"><tspan x="0" y="0">T</tspan></text><text class="c" transform="translate(46.51 15.36) rotate(2.9)"><tspan x="0" y="0">A</tspan></text><text class="c" transform="translate(54.39 16.02) rotate(12.46)"><tspan x="0" y="0">I</tspan></text><text class="c" transform="translate(57.52 16.65) rotate(20.68)"><tspan x="0" y="0">L</tspan></text><text class="c" transform="translate(63.25 18.98) rotate(29.08)"><tspan x="0" y="0"> </tspan></text><text class="c" transform="translate(66.29 20.59) rotate(37.95)"><tspan x="0" y="0">B</tspan></text><text class="c" transform="translate(71.56 24.7) rotate(50.47)"><tspan x="0" y="0">A</tspan></text><text class="c" transform="translate(76.48 30.87) rotate(63.18)"><tspan x="0" y="0">R</tspan></text><g><path class="b" d="M67.65,42.29v11.62c0,1.88-1.53,3.41-3.41,3.41h-5.77v-.66c0-2.13-1.73-3.86-3.87-3.86h-11.27c-2.14,0-3.86,1.73-3.86,3.86v.66h-6.86c-1.88,0-3.41-1.53-3.41-3.41v-7.19h13.63c.31,0,.55-.25,.55-.56s-.24-.56-.55-.56h-13.63v-3.32c0-1.89,1.53-3.41,3.41-3.41h31.63c1.89,0,3.41,1.53,3.41,3.41Z"/><g><g><path class="b" d="M44.8,57.62c0,.29-.24,.53-.53,.53s-.52-.24-.52-.53,.23-.52,.52-.52,.53,.23,.53,.52Z"/><path class="b" d="M44.28,53.78c-2.12,0-3.84,1.72-3.84,3.84s1.72,3.85,3.84,3.85,3.85-1.72,3.85-3.85-1.72-3.84-3.85-3.84Zm0,5.51c-.91,0-1.66-.74-1.66-1.66s.74-1.66,1.66-1.66,1.66,.74,1.66,1.66-.74,1.66-1.66,1.66Z"/><path class="b" d="M44.8,57.62c0,.29-.24,.53-.53,.53s-.52-.24-.52-.53,.23-.52,.52-.52,.53,.23,.53,.52Z"/><path class="b" d="M44.8,57.62c0,.29-.24,.53-.53,.53s-.52-.24-.52-.53,.23-.52,.52-.52,.53,.23,.53,.52Z"/></g><g><path class="b" d="M54.19,57.62c0,.29-.24,.53-.53,.53s-.52-.24-.52-.53,.23-.52,.52-.52,.53,.23,.53,.52Z"/><path class="b" d="M53.66,53.78c-2.12,0-3.84,1.72-3.84,3.84s1.72,3.85,3.84,3.85,3.85-1.72,3.85-3.85-1.72-3.84-3.85-3.84Zm0,5.51c-.91,0-1.66-.74-1.66-1.66s.74-1.66,1.66-1.66,1.66,.74,1.66,1.66-.74,1.66-1.66,1.66Z"/><path class="b" d="M54.19,57.62c0,.29-.24,.53-.53,.53s-.52-.24-.52-.53,.23-.52,.52-.52,.53,.23,.53,.52Z"/><path class="b" d="M54.19,57.62c0,.29-.24,.53-.53,.53s-.52-.24-.52-.53,.23-.52,.52-.52,.53,.23,.53,.52Z"/></g></g></g><circle class="b" cx="11.79" cy="48.47" r=".79"/><circle class="b" cx="85.07" cy="48.47" r=".79"/><g><polygon class="d" points="48.39 44.43 48.39 47.68 48.85 47.68 48.85 46.31 49.31 47.68 49.79 47.68 49.19 46.07 49.79 44.43 49.31 44.43 48.86 45.8 48.86 44.43 48.39 44.43"/><polygon class="d" points="53.94 44.43 53.94 47.68 53.48 47.68 53.48 46.29 53.02 46.29 53.02 47.68 52.55 47.68 52.55 44.43 53.02 44.43 53.02 45.83 53.48 45.83 53.48 44.43 53.94 44.43"/><polygon class="d" points="60.2 44.43 60.2 47.68 59.74 47.68 59.74 46.29 59.27 46.29 59.27 47.68 58.81 47.68 58.81 44.43 59.27 44.43 59.27 45.83 59.74 45.83 59.74 44.43 60.2 44.43"/><polygon class="d" points="56.04 44.43 56.04 44.9 55.56 44.9 55.56 47.68 55.1 47.68 55.1 44.9 54.64 44.9 54.64 44.43 56.04 44.43"/><polygon class="d" points="58.11 44.43 58.11 47.68 57.65 47.68 57.65 45.84 57.19 47.68 56.73 47.68 56.73 44.43 57.19 44.43 57.19 46.27 57.65 44.43 58.11 44.43"/><path class="d" d="M61.77,44.43h-.41l-.46,3.25h.46l.07-.47h.33l.07,.47h.46l-.5-3.25Zm-.3,2.32l.11-.92,.11,.92h-.22Z"/><path class="d" d="M51.35,44.43h-.41l-.46,3.25h.46l.07-.47h.33l.07,.47h.46l-.5-3.25Zm-.3,2.32l.11-.92,.11,.92h-.22Z"/></g></svg>