<?xml version="1.0" encoding="UTF-8"?><svg id="a" xmlns="http://www.w3.org/2000/svg" viewBox="0 0 699 48"><defs><style>.b{fill:#77836f;}</style></defs><g><g><path class="b" d="M78.47,7.18l-.1,23.58c-.02,3.82-3.13,6.9-6.96,6.89l-11.7-.05v-1.35c.02-4.32-3.48-7.86-7.81-7.87l-22.86-.1c-4.34-.02-7.86,3.48-7.87,7.81v1.35l-13.93-.06c-3.82-.02-6.9-3.13-6.89-6.95l.06-14.58,27.66,.12c.62,0,1.12-.5,1.12-1.13s-.49-1.13-1.11-1.13l-27.66-.12,.03-6.73C.46,3.01,3.57-.08,7.39-.06L71.57,.22c3.83,.02,6.92,3.13,6.9,6.96Z"/><g><g><path class="b" d="M31.96,38.09c0,.59-.49,1.07-1.08,1.07s-1.06-.49-1.06-1.08,.48-1.06,1.07-1.06,1.07,.48,1.07,1.07Z"/><path class="b" d="M38.7,38.12c.01-4.3-3.46-7.81-7.78-7.83-4.29-.01-7.8,3.46-7.82,7.76-.02,4.31,3.47,7.82,7.76,7.84,4.32,.02,7.82-3.47,7.85-7.78Zm-7.83,3.34c-1.85-.01-3.36-1.52-3.34-3.39,0-1.85,1.52-3.36,3.38-3.35,1.86,0,3.37,1.52,3.36,3.37,0,1.87-1.52,3.38-3.39,3.36Z"/><path class="b" d="M31.96,38.09c0,.59-.49,1.07-1.08,1.07s-1.06-.49-1.06-1.08,.48-1.06,1.07-1.06,1.07,.48,1.07,1.07Z"/><path class="b" d="M31.96,38.09c0,.59-.49,1.07-1.08,1.07s-1.06-.49-1.06-1.08,.48-1.06,1.07-1.06,1.07,.48,1.07,1.07Z"/></g><g><path class="b" d="M51.02,38.18c0,.59-.49,1.07-1.08,1.07s-1.06-.49-1.06-1.08,.48-1.06,1.07-1.06,1.07,.48,1.07,1.07Z"/><path class="b" d="M57.76,38.21c.01-4.3-3.47-7.81-7.78-7.83-4.3-.02-7.81,3.46-7.82,7.76-.02,4.31,3.46,7.82,7.76,7.83,4.31,.03,7.82-3.46,7.85-7.77Zm-7.83,3.34c-1.85-.01-3.36-1.53-3.35-3.39,.01-1.86,1.53-3.37,3.38-3.36,1.87,.01,3.38,1.53,3.37,3.38-.01,1.86-1.52,3.37-3.39,3.36Z"/><path class="b" d="M51.02,38.18c0,.59-.49,1.07-1.08,1.07s-1.06-.49-1.06-1.08,.48-1.06,1.07-1.06,1.07,.48,1.07,1.07Z"/><path class="b" d="M51.02,38.18c0,.59-.49,1.07-1.08,1.07s-1.06-.49-1.06-1.08,.48-1.06,1.07-1.06,1.07,.48,1.07,1.07Z"/></g></g></g><g><path class="b" d="M167.45,7.57l-.1,23.58c-.02,3.82-3.13,6.9-6.96,6.89l-11.7-.05v-1.35c.02-4.32-3.48-7.86-7.81-7.87l-22.86-.1c-4.34-.02-7.86,3.48-7.87,7.81v1.35l-13.93-.06c-3.82-.02-6.9-3.13-6.89-6.95l.06-14.58,27.66,.12c.62,0,1.12-.5,1.12-1.13s-.49-1.13-1.11-1.13l-27.66-.12,.03-6.73c.02-3.83,3.13-6.92,6.95-6.9l64.18,.28c3.83,.02,6.92,3.13,6.9,6.96Z"/><g><g><path class="b" d="M120.94,38.48c0,.59-.49,1.07-1.08,1.07s-1.06-.49-1.06-1.08,.48-1.06,1.07-1.06,1.07,.48,1.07,1.07Z"/><path class="b" d="M127.67,38.52c.01-4.3-3.46-7.81-7.77-7.84-4.3-.01-7.81,3.47-7.84,7.77-.02,4.31,3.47,7.82,7.77,7.84,4.31,.02,7.82-3.46,7.84-7.77Zm-7.82,3.34c-1.86-.01-3.37-1.53-3.35-3.39,.01-1.86,1.52-3.37,3.38-3.36,1.86,.01,3.37,1.52,3.36,3.38,0,1.86-1.52,3.37-3.38,3.37Z"/><path class="b" d="M120.94,38.48c0,.59-.49,1.07-1.08,1.07s-1.06-.49-1.06-1.08,.48-1.06,1.07-1.06,1.07,.48,1.07,1.07Z"/><path class="b" d="M120.94,38.48c0,.59-.49,1.07-1.08,1.07s-1.06-.49-1.06-1.08,.48-1.06,1.07-1.06,1.07,.48,1.07,1.07Z"/></g><g><path class="b" d="M139.99,38.57c0,.59-.49,1.07-1.08,1.07s-1.06-.49-1.06-1.08,.48-1.06,1.07-1.06,1.07,.48,1.07,1.07Z"/><path class="b" d="M146.73,38.6c.01-4.3-3.46-7.81-7.78-7.83-4.29-.01-7.8,3.46-7.82,7.76-.02,4.31,3.47,7.82,7.76,7.84,4.32,.02,7.82-3.47,7.85-7.78Zm-7.83,3.34c-1.85-.01-3.36-1.52-3.34-3.39,0-1.85,1.52-3.36,3.38-3.35,1.86,0,3.37,1.52,3.36,3.37,0,1.87-1.52,3.38-3.39,3.36Z"/><path class="b" d="M139.99,38.57c0,.59-.49,1.07-1.08,1.07s-1.06-.49-1.06-1.08,.48-1.06,1.07-1.06,1.07,.48,1.07,1.07Z"/><path class="b" d="M139.99,38.57c0,.59-.49,1.07-1.08,1.07s-1.06-.49-1.06-1.08,.48-1.06,1.07-1.06,1.07,.48,1.07,1.07Z"/></g></g></g><rect class="b" x="78.39" y="26.05" width="10.94" height="1.54" rx=".38" ry=".38" transform="translate(.12 -.37) rotate(.25)"/><g><path class="b" d="M256.42,7.96l-.1,23.58c-.02,3.82-3.13,6.9-6.96,6.89l-11.7-.05v-1.35c.02-4.32-3.48-7.86-7.81-7.87l-22.86-.1c-4.34-.02-7.86,3.48-7.87,7.81v1.35l-13.93-.06c-3.82-.02-6.9-3.13-6.89-6.95l.06-14.58,27.66,.12c.62,0,1.12-.5,1.12-1.13s-.49-1.13-1.11-1.13l-27.66-.12,.03-6.73c.02-3.83,3.13-6.92,6.95-6.9l64.18,.28c3.83,.02,6.92,3.13,6.9,6.96Z"/><g><g><path class="b" d="M209.91,38.88c0,.59-.49,1.07-1.08,1.07s-1.06-.49-1.06-1.08,.48-1.06,1.07-1.06,1.07,.48,1.07,1.07Z"/><path class="b" d="M216.64,38.9c.02-4.3-3.46-7.81-7.77-7.83-4.3-.02-7.81,3.46-7.82,7.76-.03,4.31,3.46,7.82,7.76,7.84,4.31,.02,7.82-3.47,7.84-7.78Zm-7.82,3.34c-1.85-.01-3.37-1.53-3.35-3.39,.01-1.85,1.53-3.36,3.38-3.36,1.86,.01,3.37,1.53,3.37,3.38-.01,1.87-1.53,3.38-3.39,3.36Z"/><path class="b" d="M209.91,38.88c0,.59-.49,1.07-1.08,1.07s-1.06-.49-1.06-1.08,.48-1.06,1.07-1.06,1.07,.48,1.07,1.07Z"/><path class="b" d="M209.91,38.88c0,.59-.49,1.07-1.08,1.07s-1.06-.49-1.06-1.08,.48-1.06,1.07-1.06,1.07,.48,1.07,1.07Z"/></g><g><path class="b" d="M228.96,38.96c0,.59-.49,1.07-1.08,1.07s-1.06-.49-1.06-1.08,.48-1.06,1.07-1.06,1.07,.48,1.07,1.07Z"/><path class="b" d="M235.7,38.99c.01-4.3-3.46-7.81-7.77-7.83-4.3-.02-7.81,3.46-7.83,7.76-.02,4.31,3.47,7.82,7.77,7.84,4.31,.03,7.82-3.46,7.84-7.77Zm-7.82,3.34c-1.86-.01-3.37-1.53-3.35-3.39,.01-1.86,1.52-3.37,3.38-3.36,1.86,.01,3.37,1.52,3.36,3.38,0,1.86-1.52,3.37-3.38,3.37Z"/><path class="b" d="M228.96,38.96c0,.59-.49,1.07-1.08,1.07s-1.06-.49-1.06-1.08,.48-1.06,1.07-1.06,1.07,.48,1.07,1.07Z"/><path class="b" d="M228.96,38.96c0,.59-.49,1.07-1.08,1.07s-1.06-.49-1.06-1.08,.48-1.06,1.07-1.06,1.07,.48,1.07,1.07Z"/></g></g></g><rect class="b" x="167.36" y="26.44" width="10.94" height="1.54" rx=".38" ry=".38" transform="translate(.12 -.76) rotate(.25)"/><g><path class="b" d="M345.39,8.36l-.1,23.58c-.02,3.82-3.13,6.9-6.96,6.89l-11.7-.05v-1.35c.02-4.32-3.48-7.86-7.81-7.87l-22.86-.1c-4.34-.02-7.86,3.48-7.87,7.81v1.35l-13.93-.06c-3.82-.02-6.9-3.13-6.89-6.95l.06-14.58,27.66,.12c.62,0,1.12-.5,1.12-1.13s-.49-1.13-1.11-1.13l-27.66-.12,.03-6.73c.02-3.83,3.13-6.92,6.95-6.9l64.18,.28c3.83,.02,6.92,3.13,6.9,6.96Z"/><g><g><path class="b" d="M298.88,39.27c0,.59-.49,1.07-1.08,1.07s-1.06-.49-1.06-1.08,.48-1.06,1.07-1.06,1.07,.48,1.07,1.07Z"/><path class="b" d="M305.61,39.3c.02-4.3-3.46-7.81-7.77-7.84-4.3-.01-7.81,3.47-7.83,7.77-.03,4.31,3.46,7.82,7.76,7.83,4.31,.02,7.82-3.46,7.84-7.77Zm-7.82,3.34c-1.85-.01-3.36-1.53-3.35-3.39,.01-1.86,1.53-3.37,3.38-3.36,1.87,.01,3.38,1.52,3.37,3.38-.01,1.86-1.53,3.37-3.39,3.36Z"/><path class="b" d="M298.88,39.27c0,.59-.49,1.07-1.08,1.07s-1.06-.49-1.06-1.08,.48-1.06,1.07-1.06,1.07,.48,1.07,1.07Z"/><path class="b" d="M298.88,39.27c0,.59-.49,1.07-1.08,1.07s-1.06-.49-1.06-1.08,.48-1.06,1.07-1.06,1.07,.48,1.07,1.07Z"/></g><g><path class="b" d="M317.94,39.35c0,.59-.49,1.07-1.08,1.07s-1.06-.49-1.06-1.08,.48-1.06,1.07-1.06,1.07,.48,1.07,1.07Z"/><path class="b" d="M324.67,39.38c.02-4.3-3.46-7.81-7.77-7.83-4.3-.01-7.81,3.46-7.82,7.76-.03,4.31,3.46,7.82,7.76,7.84,4.31,.02,7.82-3.47,7.84-7.78Zm-7.82,3.34c-1.85-.01-3.37-1.52-3.35-3.39,.01-1.85,1.53-3.36,3.38-3.35,1.86,0,3.37,1.52,3.37,3.37-.01,1.87-1.53,3.38-3.39,3.36Z"/><path class="b" d="M317.94,39.35c0,.59-.49,1.07-1.08,1.07s-1.06-.49-1.06-1.08,.48-1.06,1.07-1.06,1.07,.48,1.07,1.07Z"/><path class="b" d="M317.94,39.35c0,.59-.49,1.07-1.08,1.07s-1.06-.49-1.06-1.08,.48-1.06,1.07-1.06,1.07,.48,1.07,1.07Z"/></g></g></g><rect class="b" x="256.33" y="26.83" width="10.94" height="1.54" rx=".38" ry=".38" transform="translate(.12 -1.15) rotate(.25)"/><g><path class="b" d="M434.36,8.75l-.1,23.58c-.02,3.82-3.13,6.9-6.96,6.89l-11.7-.05v-1.35c.02-4.32-3.48-7.86-7.81-7.87l-22.86-.1c-4.34-.02-7.86,3.48-7.87,7.81v1.35l-13.93-.06c-3.82-.02-6.9-3.13-6.89-6.95l.06-14.58,27.66,.12c.62,0,1.12-.5,1.12-1.13s-.49-1.13-1.11-1.13l-27.66-.12,.03-6.73c.02-3.83,3.13-6.92,6.95-6.9l64.18,.28c3.83,.02,6.92,3.13,6.9,6.96Z"/><g><g><path class="b" d="M387.86,39.66c0,.59-.49,1.07-1.08,1.07s-1.06-.49-1.06-1.08,.48-1.06,1.07-1.06,1.07,.48,1.07,1.07Z"/><path class="b" d="M394.59,39.69c.01-4.3-3.47-7.81-7.78-7.83-4.3-.02-7.81,3.46-7.82,7.76-.02,4.31,3.46,7.82,7.76,7.84,4.31,.02,7.82-3.47,7.85-7.78Zm-7.83,3.34c-1.85-.01-3.36-1.53-3.34-3.39,0-1.85,1.52-3.36,3.37-3.36,1.87,.01,3.38,1.53,3.37,3.38,0,1.87-1.52,3.38-3.39,3.36Z"/><path class="b" d="M387.86,39.66c0,.59-.49,1.07-1.08,1.07s-1.06-.49-1.06-1.08,.48-1.06,1.07-1.06,1.07,.48,1.07,1.07Z"/><path class="b" d="M387.86,39.66c0,.59-.49,1.07-1.08,1.07s-1.06-.49-1.06-1.08,.48-1.06,1.07-1.06,1.07,.48,1.07,1.07Z"/></g><g><path class="b" d="M406.91,39.74c0,.59-.49,1.07-1.08,1.07s-1.06-.49-1.06-1.08,.48-1.06,1.07-1.06,1.07,.48,1.07,1.07Z"/><path class="b" d="M413.64,39.77c.02-4.3-3.46-7.81-7.77-7.84-4.3-.01-7.81,3.47-7.83,7.77-.03,4.31,3.46,7.82,7.76,7.83,4.31,.02,7.82-3.46,7.84-7.77Zm-7.82,3.34c-1.85-.01-3.36-1.53-3.35-3.39,.01-1.86,1.53-3.37,3.38-3.36,1.87,.01,3.38,1.52,3.37,3.38-.01,1.86-1.53,3.37-3.39,3.36Z"/><path class="b" d="M406.91,39.74c0,.59-.49,1.07-1.08,1.07s-1.06-.49-1.06-1.08,.48-1.06,1.07-1.06,1.07,.48,1.07,1.07Z"/><path class="b" d="M406.91,39.74c0,.59-.49,1.07-1.08,1.07s-1.06-.49-1.06-1.08,.48-1.06,1.07-1.06,1.07,.48,1.07,1.07Z"/></g></g></g><rect class="b" x="345.31" y="27.22" width="10.94" height="1.54" rx=".38" ry=".38" transform="translate(.13 -1.54) rotate(.25)"/><g><path class="b" d="M523.34,9.14l-.1,23.58c-.02,3.82-3.13,6.9-6.96,6.89l-11.7-.05v-1.35c.02-4.32-3.48-7.86-7.81-7.87l-22.86-.1c-4.34-.02-7.86,3.48-7.87,7.81v1.35l-13.93-.06c-3.82-.02-6.9-3.13-6.89-6.95l.06-14.58,27.66,.12c.62,0,1.12-.5,1.12-1.13s-.49-1.13-1.11-1.13l-27.66-.12,.03-6.73c.02-3.83,3.13-6.92,6.95-6.9l64.18,.28c3.83,.02,6.92,3.13,6.9,6.96Z"/><g><g><path class="b" d="M476.83,40.05c0,.59-.49,1.07-1.08,1.07s-1.06-.49-1.06-1.08,.48-1.06,1.07-1.06,1.07,.48,1.07,1.07Z"/><path class="b" d="M483.56,40.08c.01-4.3-3.46-7.81-7.77-7.84-4.3-.01-7.81,3.47-7.84,7.77-.02,4.31,3.47,7.82,7.77,7.84,4.31,.02,7.82-3.46,7.84-7.77Zm-7.82,3.33c-1.85,0-3.36-1.52-3.34-3.39,.01-1.85,1.52-3.36,3.38-3.35,1.86,0,3.37,1.52,3.36,3.38,0,1.86-1.52,3.37-3.39,3.35Z"/><path class="b" d="M476.83,40.05c0,.59-.49,1.07-1.08,1.07s-1.06-.49-1.06-1.08,.48-1.06,1.07-1.06,1.07,.48,1.07,1.07Z"/><path class="b" d="M476.83,40.05c0,.59-.49,1.07-1.08,1.07s-1.06-.49-1.06-1.08,.48-1.06,1.07-1.06,1.07,.48,1.07,1.07Z"/></g><g><path class="b" d="M495.88,40.13c0,.59-.49,1.07-1.08,1.07s-1.06-.49-1.06-1.08,.48-1.06,1.07-1.06,1.07,.48,1.07,1.07Z"/><path class="b" d="M502.62,40.16c.01-4.3-3.47-7.81-7.78-7.83-4.3-.02-7.81,3.46-7.82,7.76-.02,4.31,3.46,7.82,7.76,7.84,4.31,.02,7.82-3.47,7.85-7.78Zm-7.83,3.34c-1.85-.01-3.36-1.53-3.34-3.39,0-1.85,1.52-3.36,3.37-3.36,1.87,.01,3.38,1.53,3.37,3.38,0,1.87-1.52,3.38-3.39,3.36Z"/><path class="b" d="M495.88,40.13c0,.59-.49,1.07-1.08,1.07s-1.06-.49-1.06-1.08,.48-1.06,1.07-1.06,1.07,.48,1.07,1.07Z"/><path class="b" d="M495.88,40.13c0,.59-.49,1.07-1.08,1.07s-1.06-.49-1.06-1.08,.48-1.06,1.07-1.06,1.07,.48,1.07,1.07Z"/></g></g></g><rect class="b" x="434.28" y="27.61" width="10.94" height="1.54" rx=".38" ry=".38" transform="translate(.13 -1.93) rotate(.25)"/></g><g><g><path class="b" d="M610.46,8.28l-.1,23.58c-.02,3.82-3.13,6.9-6.96,6.89l-11.7-.05v-1.35c.02-4.32-3.48-7.86-7.81-7.87l-22.86-.1c-4.34-.02-7.86,3.48-7.87,7.81v1.35l-13.93-.06c-3.82-.02-6.9-3.13-6.89-6.95l.06-14.58,27.66,.12c.62,0,1.12-.5,1.12-1.13,0-.62-.49-1.13-1.11-1.13l-27.66-.12,.03-6.73c.02-3.83,3.13-6.92,6.95-6.9l64.18,.28c3.83,.02,6.92,3.13,6.9,6.96Z"/><g><g><path class="b" d="M563.95,39.19c0,.59-.49,1.07-1.08,1.07s-1.06-.49-1.06-1.08,.48-1.06,1.07-1.06,1.07,.48,1.07,1.07Z"/><path class="b" d="M570.68,39.22c.01-4.3-3.46-7.81-7.78-7.83-4.29-.01-7.8,3.46-7.82,7.76-.02,4.31,3.47,7.82,7.76,7.84,4.32,.02,7.82-3.47,7.85-7.78Zm-7.83,3.34c-1.85-.01-3.36-1.52-3.34-3.39,0-1.85,1.52-3.36,3.38-3.35,1.86,0,3.37,1.52,3.36,3.37,0,1.87-1.52,3.38-3.39,3.36Z"/><path class="b" d="M563.95,39.19c0,.59-.49,1.07-1.08,1.07s-1.06-.49-1.06-1.08,.48-1.06,1.07-1.06,1.07,.48,1.07,1.07Z"/><path class="b" d="M563.95,39.19c0,.59-.49,1.07-1.08,1.07s-1.06-.49-1.06-1.08,.48-1.06,1.07-1.06,1.07,.48,1.07,1.07Z"/></g><g><path class="b" d="M583,39.28c0,.59-.49,1.07-1.08,1.07s-1.06-.49-1.06-1.08,.48-1.06,1.07-1.06,1.07,.48,1.07,1.07Z"/><path class="b" d="M589.74,39.31c.01-4.3-3.47-7.81-7.78-7.83-4.3-.02-7.81,3.46-7.82,7.76-.02,4.31,3.46,7.82,7.76,7.83,4.31,.03,7.82-3.46,7.85-7.77Zm-7.83,3.34c-1.85-.01-3.36-1.53-3.35-3.39,.01-1.86,1.53-3.37,3.38-3.36,1.87,.01,3.38,1.53,3.37,3.38-.01,1.86-1.52,3.37-3.39,3.36Z"/><path class="b" d="M583,39.28c0,.59-.49,1.07-1.08,1.07s-1.06-.49-1.06-1.08,.48-1.06,1.07-1.06,1.07,.48,1.07,1.07Z"/><path class="b" d="M583,39.28c0,.59-.49,1.07-1.08,1.07s-1.06-.49-1.06-1.08,.48-1.06,1.07-1.06,1.07,.48,1.07,1.07Z"/></g></g></g><g><path class="b" d="M699.43,8.67l-.1,23.58c-.02,3.82-3.13,6.9-6.96,6.89l-11.7-.05v-1.35c.02-4.32-3.48-7.86-7.81-7.87l-22.86-.1c-4.34-.02-7.86,3.48-7.87,7.81v1.35l-13.93-.06c-3.82-.02-6.9-3.13-6.89-6.95l.06-14.58,27.66,.12c.62,0,1.12-.5,1.12-1.13s-.49-1.13-1.11-1.13l-27.66-.12,.03-6.73c.02-3.83,3.13-6.92,6.95-6.9l64.18,.28c3.83,.02,6.92,3.13,6.9,6.96Z"/><g><g><path class="b" d="M652.92,39.58c0,.59-.49,1.07-1.08,1.07s-1.06-.49-1.06-1.08,.48-1.06,1.07-1.06,1.07,.48,1.07,1.07Z"/><path class="b" d="M659.65,39.62c.01-4.3-3.46-7.81-7.77-7.84-4.3-.01-7.81,3.47-7.84,7.77-.02,4.31,3.47,7.82,7.77,7.84,4.31,.02,7.82-3.46,7.84-7.77Zm-7.82,3.34c-1.86-.01-3.37-1.53-3.35-3.39,.01-1.86,1.52-3.37,3.38-3.36,1.86,.01,3.37,1.52,3.36,3.38,0,1.86-1.52,3.37-3.38,3.37Z"/><path class="b" d="M652.92,39.58c0,.59-.49,1.07-1.08,1.07s-1.06-.49-1.06-1.08,.48-1.06,1.07-1.06,1.07,.48,1.07,1.07Z"/><path class="b" d="M652.92,39.58c0,.59-.49,1.07-1.08,1.07s-1.06-.49-1.06-1.08,.48-1.06,1.07-1.06,1.07,.48,1.07,1.07Z"/></g><g><path class="b" d="M671.98,39.67c0,.59-.49,1.07-1.08,1.07s-1.06-.49-1.06-1.08c0-.59,.48-1.06,1.07-1.06s1.07,.48,1.07,1.07Z"/><path class="b" d="M678.71,39.69c.01-4.3-3.46-7.81-7.78-7.83-4.29-.01-7.8,3.46-7.82,7.76-.02,4.31,3.47,7.82,7.76,7.84,4.32,.02,7.82-3.47,7.85-7.78Zm-7.83,3.34c-1.85-.01-3.36-1.52-3.34-3.39,0-1.85,1.52-3.36,3.38-3.35,1.86,0,3.37,1.52,3.36,3.37,0,1.87-1.52,3.38-3.39,3.36Z"/><path class="b" d="M671.98,39.67c0,.59-.49,1.07-1.08,1.07s-1.06-.49-1.06-1.08c0-.59,.48-1.06,1.07-1.06s1.07,.48,1.07,1.07Z"/><path class="b" d="M671.98,39.67c0,.59-.49,1.07-1.08,1.07s-1.06-.49-1.06-1.08c0-.59,.48-1.06,1.07-1.06s1.07,.48,1.07,1.07Z"/></g></g></g><rect class="b" x="610.37" y="27.15" width="10.94" height="1.54" rx=".38" ry=".38" transform="translate(.13 -2.71) rotate(.25)"/><rect class="b" x="521.81" y="26.14" width="10.94" height="1.54" rx=".38" ry=".38" transform="translate(.12 -2.32) rotate(.25)"/></g></svg>