<?xml version="1.0" encoding="UTF-8"?><svg id="a" xmlns="http://www.w3.org/2000/svg" viewBox="0 0 153 92"><defs><style>.b{fill:#77836f;}.c{fill:#ede6da;}.d{fill:none;stroke:#77836f;stroke-miterlimit:10;stroke-width:1.24px;}</style></defs><g><path class="c" d="M153,29.27v-13.22c0-7.52-6.09-13.6-13.58-13.6H13.4c-7.52,0-13.6,6.09-13.6,13.6V62.35c0,7.49,6.09,13.58,13.6,13.58h22.98v-2.65c0-8.49,6.9-15.39,15.42-15.39h44.89c8.51,0,15.39,6.9,15.39,15.39v2.65h27.35c7.49,0,13.58-6.09,13.58-13.58v-28.64"/><g><g><path class="c" d="M90.84,77.15c0,1.15,.95,2.11,2.11,2.11s2.08-.95,2.08-2.11c0-1.15-.93-2.08-2.08-2.08s-2.11,.93-2.11,2.08Z"/><path class="c" d="M77.62,77.15c0,8.47,6.86,15.33,15.33,15.33,8.44,0,15.3-6.86,15.3-15.33s-6.86-15.3-15.3-15.3-15.33,6.86-15.33,15.3Zm8.69,0c0-3.64,2.97-6.61,6.63-6.61s6.61,2.97,6.61,6.61-2.97,6.63-6.61,6.63-6.63-2.97-6.63-6.63Z"/><path class="c" d="M90.84,77.15c0,1.15,.95,2.11,2.11,2.11s2.08-.95,2.08-2.11c0-1.15-.93-2.08-2.08-2.08s-2.11,.93-2.11,2.08Z"/><path class="c" d="M90.84,77.15c0,1.15,.95,2.11,2.11,2.11s2.08-.95,2.08-2.11c0-1.15-.93-2.08-2.08-2.08s-2.11,.93-2.11,2.08Z"/></g><g><path class="c" d="M53.43,77.15c0,1.15,.95,2.11,2.11,2.11s2.08-.95,2.08-2.11-.93-2.08-2.08-2.08-2.11,.93-2.11,2.08Z"/><path class="c" d="M40.21,77.15c0,8.47,6.86,15.33,15.33,15.33,8.44,0,15.3-6.86,15.3-15.33s-6.86-15.3-15.3-15.3-15.33,6.86-15.33,15.3Zm8.69,0c0-3.64,2.97-6.61,6.63-6.61s6.61,2.97,6.61,6.61-2.97,6.63-6.61,6.63-6.63-2.97-6.63-6.63Z"/><path class="c" d="M53.43,77.15c0,1.15,.95,2.11,2.11,2.11s2.08-.95,2.08-2.11-.93-2.08-2.08-2.08-2.11,.93-2.11,2.08Z"/><path class="c" d="M53.43,77.15c0,1.15,.95,2.11,2.11,2.11s2.08-.95,2.08-2.11-.93-2.08-2.08-2.08-2.11,.93-2.11,2.08Z"/></g></g></g><g><path class="b" d="M15.61,40.81V23.54h1.98v17.28h-1.98Zm1.25-6.7v-1.87h3.48c.5,0,.89-.17,1.17-.5,.28-.33,.42-.8,.42-1.39v-3.01c0-.63-.14-1.11-.41-1.44-.27-.34-.66-.5-1.17-.5h-3.48v-1.87h3.41c.78,0,1.44,.15,1.98,.45,.55,.3,.96,.73,1.25,1.29s.43,1.25,.43,2.06v3.08c0,.78-.14,1.44-.43,2-.29,.55-.71,.98-1.25,1.27s-1.2,.44-1.97,.44h-3.41Z"/><path class="b" d="M26.36,40.81V23.54h1.98v17.28h-1.98Zm1.18-15.41v-1.87h6.24v1.87h-6.24Zm0,7.77v-1.88h5.64v1.88h-5.64Zm0,7.64v-1.87h6.24v1.87h-6.24Z"/><path class="b" d="M39.79,40.99c-1.42,0-2.52-.36-3.3-1.08s-1.17-1.74-1.17-3.05v-.89h1.92v.78c0,.74,.22,1.31,.67,1.71,.44,.4,1.07,.61,1.88,.61s1.37-.22,1.79-.65c.43-.44,.64-1.05,.64-1.83v-1.85c0-.62-.15-1.1-.46-1.43-.3-.34-.73-.5-1.29-.5h-2.51v-1.92h2.51c.45,0,.81-.13,1.07-.4,.26-.27,.39-.65,.39-1.15v-1.84c0-.7-.19-1.24-.56-1.62-.38-.38-.91-.57-1.6-.57s-1.27,.19-1.66,.58c-.39,.38-.59,.92-.59,1.62v.84h-1.92v-.83c0-1.31,.38-2.33,1.12-3.05,.75-.72,1.8-1.08,3.17-1.08,1.26,0,2.24,.36,2.93,1.08,.69,.72,1.04,1.74,1.04,3.07v1.83c0,.42-.13,.84-.39,1.27s-.63,.82-1.1,1.19c.56,.23,1,.6,1.31,1.11,.31,.51,.47,1.12,.47,1.82v1.85c0,1.4-.38,2.49-1.14,3.26-.76,.77-1.83,1.15-3.22,1.15Z"/><path class="b" d="M45.87,40.81V23.54h1.98v17.28h-1.98Zm1.18-15.41v-1.87h6.24v1.87h-6.24Zm0,7.77v-1.88h5.64v1.88h-5.64Zm0,7.64v-1.87h6.24v1.87h-6.24Z"/><path class="b" d="M55.07,40.81V23.54h1.98v17.28h-1.98Zm1.25-6.7v-1.87h3.48c.5,0,.89-.17,1.17-.5,.28-.33,.42-.8,.42-1.39v-3.01c0-.63-.14-1.11-.41-1.44-.27-.34-.66-.5-1.17-.5h-3.48v-1.87h3.41c.78,0,1.44,.15,1.98,.45,.55,.3,.96,.73,1.25,1.29s.43,1.25,.43,2.06v3.08c0,.78-.14,1.44-.43,2-.29,.55-.71,.98-1.25,1.27s-1.2,.44-1.97,.44h-3.41Z"/><path class="b" d="M65.82,40.81V23.54h1.98v17.28h-1.98Zm1.43,0v-1.87h3.11c.51,0,.9-.13,1.18-.39s.42-.62,.42-1.08v-2.66c0-.67-.16-1.19-.49-1.56-.32-.36-.74-.55-1.24-.55h-2.99v-1.85h2.99c.48,0,.84-.16,1.1-.49,.26-.33,.39-.79,.39-1.4v-2.13c0-.46-.13-.82-.39-1.07-.26-.25-.62-.38-1.08-.38h-3.02v-1.87h2.96c1.12,0,1.99,.28,2.6,.84,.61,.56,.92,1.35,.92,2.37v2.07c0,.82-.17,1.49-.49,2.02-.33,.53-.8,.87-1.41,1.01,.68,.13,1.21,.46,1.57,1.01,.37,.55,.55,1.26,.55,2.15v2.52c0,1.05-.3,1.86-.89,2.43-.59,.57-1.44,.86-2.53,.86h-3.28Z"/><path class="b" d="M84.51,40.8h-1.88v-13.28l.29,.31-5.38,12.98h-1.51V23.54h1.88v13.37l-.29-.31,5.41-13.06h1.49v17.26Z"/><path class="b" d="M86.89,40.81V23.54h1.98v17.28h-1.98Zm1.25-6.7v-1.87h3.48c.5,0,.89-.17,1.17-.5,.28-.33,.42-.8,.42-1.39v-3.01c0-.63-.14-1.11-.41-1.44-.27-.34-.66-.5-1.17-.5h-3.48v-1.87h3.41c.78,0,1.44,.15,1.98,.45,.55,.3,.96,.73,1.25,1.29s.43,1.25,.43,2.06v3.08c0,.78-.14,1.44-.43,2-.29,.55-.71,.98-1.25,1.27s-1.2,.44-1.97,.44h-3.41Z"/><path class="b" d="M95.74,40.81l3.99-17.28h2.07l3.99,17.28h-2.16l-2.86-14.56-2.86,14.56h-2.16Zm2.39-3.98v-1.87h5.5v1.87h-5.5Z"/><path class="b" d="M109.96,40.99c-.72,0-1.38-.15-1.98-.46-.6-.31-1.09-.74-1.47-1.31l1.45-1.24c.27,.35,.59,.62,.96,.81,.37,.19,.75,.29,1.16,.29,.55,0,.99-.18,1.29-.53,.31-.35,.46-.85,.46-1.48v-13.53h1.98v13.57c0,1.24-.33,2.19-1,2.87-.67,.68-1.62,1.02-2.85,1.02Z"/></g><g><line class="d" x1="122.37" y1="32.37" x2="136.72" y2="32.37"/><polyline class="d" points="131.74 28.22 136.72 32.37 131.74 36.51"/></g></svg>