<?xml version="1.0" encoding="UTF-8"?><svg id="a" xmlns="http://www.w3.org/2000/svg" viewBox="0 0 65 38"><defs><style>.b{fill:#92a186;}.c{fill:#ede6da;}</style></defs><g><path class="b" d="M64.66,5.92V25.45c0,3.16-2.57,5.73-5.74,5.73h-9.69v-1.12c0-3.58-2.91-6.49-6.5-6.49H23.8c-3.59,0-6.49,2.91-6.49,6.49v1.12H5.77C2.61,31.17,.05,28.61,.05,25.45V13.37H22.95c.52,0,.93-.42,.93-.94s-.41-.94-.93-.94H.05V5.92C.05,2.75,2.61,.19,5.77,.19H58.92c3.17,0,5.74,2.57,5.74,5.74Z"/><g><g><path class="b" d="M26.26,31.69c0,.49-.4,.89-.89,.89s-.88-.4-.88-.89,.39-.88,.88-.88,.89,.39,.89,.88Z"/><path class="b" d="M25.37,25.24c-3.56,0-6.45,2.89-6.45,6.45s2.89,6.46,6.45,6.46,6.46-2.89,6.46-6.46-2.89-6.45-6.46-6.45Zm0,9.25c-1.54,0-2.79-1.25-2.79-2.8s1.25-2.79,2.79-2.79,2.8,1.25,2.8,2.79-1.25,2.8-2.8,2.8Z"/><path class="b" d="M26.26,31.69c0,.49-.4,.89-.89,.89s-.88-.4-.88-.89,.39-.88,.88-.88,.89,.39,.89,.88Z"/><path class="b" d="M26.26,31.69c0,.49-.4,.89-.89,.89s-.88-.4-.88-.89,.39-.88,.88-.88,.89,.39,.89,.88Z"/></g><g><path class="b" d="M42.04,31.69c0,.49-.4,.89-.89,.89s-.88-.4-.88-.89,.39-.88,.88-.88,.89,.39,.89,.88Z"/><path class="b" d="M41.15,25.24c-3.56,0-6.45,2.89-6.45,6.45s2.89,6.46,6.45,6.46,6.46-2.89,6.46-6.46-2.89-6.45-6.46-6.45Zm0,9.25c-1.54,0-2.79-1.25-2.79-2.8s1.25-2.79,2.79-2.79,2.8,1.25,2.8,2.79-1.25,2.8-2.8,2.8Z"/><path class="b" d="M42.04,31.69c0,.49-.4,.89-.89,.89s-.88-.4-.88-.89,.39-.88,.88-.88,.89,.39,.89,.88Z"/><path class="b" d="M42.04,31.69c0,.49-.4,.89-.89,.89s-.88-.4-.88-.89,.39-.88,.88-.88,.89,.39,.89,.88Z"/></g></g></g><g><polygon class="c" points="32.28 9.68 32.28 15.13 33.06 15.13 33.06 12.83 33.84 15.13 34.63 15.13 33.62 12.43 34.63 9.68 33.83 9.68 33.07 11.98 33.07 9.68 32.28 9.68"/><polygon class="c" points="41.62 9.68 41.62 15.13 40.84 15.13 40.84 12.8 40.06 12.8 40.06 15.13 39.28 15.13 39.28 9.68 40.06 9.68 40.06 12.03 40.84 12.03 40.84 9.68 41.62 9.68"/><polygon class="c" points="52.14 9.68 52.14 15.13 51.36 15.13 51.36 12.8 50.57 12.8 50.57 15.13 49.79 15.13 49.79 9.68 50.57 9.68 50.57 12.03 51.36 12.03 51.36 9.68 52.14 9.68"/><polygon class="c" points="45.13 9.68 45.13 10.46 44.33 10.46 44.33 15.13 43.56 15.13 43.56 10.46 42.79 10.46 42.79 9.68 45.13 9.68"/><polygon class="c" points="48.63 9.68 48.63 15.13 47.85 15.13 47.85 12.04 47.07 15.13 46.3 15.13 46.3 9.68 47.07 9.68 47.07 12.77 47.85 9.68 48.63 9.68"/><path class="c" d="M54.77,9.68h-.69l-.78,5.45h.77l.12-.78h.55l.12,.78h.77l-.84-5.45Zm-.5,3.9l.19-1.54,.19,1.54h-.38Z"/><path class="c" d="M37.27,9.68h-.69l-.78,5.45h.77l.12-.78h.55l.12,.78h.77l-.84-5.45Zm-.5,3.9l.19-1.54,.19,1.54h-.38Z"/></g></svg>