<?xml version="1.0" encoding="UTF-8"?><svg id="a" xmlns="http://www.w3.org/2000/svg" viewBox="0 0 315 72"><defs><style>.b{fill:#93a387;}.c{fill:#ede6da;}</style></defs><rect class="c" y="0" width="315" height="72" rx="30.3" ry="30.3"/><g><path class="b" d="M57.42,52.7V17.49h4.04V52.7h-4.04Zm2.54-13.66v-3.8h7.1c1.02,0,1.81-.34,2.37-1.02,.56-.68,.85-1.62,.85-2.83v-6.13c0-1.28-.28-2.26-.84-2.94-.56-.69-1.35-1.03-2.38-1.03h-7.1v-3.8h6.95c1.58,0,2.93,.3,4.04,.91,1.11,.61,1.96,1.48,2.54,2.63,.58,1.15,.87,2.54,.87,4.19v6.27c0,1.58-.29,2.94-.88,4.07-.59,1.13-1.44,1.99-2.56,2.59-1.11,.6-2.45,.9-4.02,.9h-6.95Z"/><path class="b" d="M79.34,52.7V17.49h4.04V52.7h-4.04Zm2.4-31.41v-3.8h12.71v3.8h-12.71Zm0,15.84v-3.83h11.5v3.83h-11.5Zm0,15.57v-3.8h12.71v3.8h-12.71Z"/><path class="b" d="M106.7,53.07c-2.89,0-5.13-.73-6.72-2.2-1.59-1.47-2.39-3.54-2.39-6.22v-1.82h3.92v1.6c0,1.5,.45,2.66,1.36,3.49s2.18,1.24,3.83,1.24,2.79-.44,3.66-1.33c.87-.89,1.31-2.13,1.31-3.73v-3.78c0-1.26-.31-2.23-.93-2.92-.62-.69-1.5-1.03-2.63-1.03h-5.11v-3.92h5.11c.92,0,1.65-.27,2.18-.82,.53-.55,.8-1.33,.8-2.35v-3.75c0-1.42-.38-2.52-1.15-3.29-.77-.78-1.85-1.16-3.26-1.16s-2.58,.39-3.38,1.17-1.2,1.88-1.2,3.31v1.72h-3.92v-1.7c0-2.68,.76-4.75,2.29-6.22,1.53-1.47,3.68-2.2,6.45-2.2,2.57,0,4.56,.73,5.97,2.2,1.41,1.47,2.12,3.55,2.12,6.25v3.73c0,.86-.27,1.72-.8,2.59-.53,.87-1.28,1.68-2.25,2.42,1.15,.47,2.04,1.22,2.68,2.26,.64,1.04,.96,2.28,.96,3.72v3.78c0,2.86-.77,5.07-2.32,6.64-1.55,1.57-3.74,2.35-6.56,2.35Z"/><path class="b" d="M119.1,52.7V17.49h4.04V52.7h-4.04Zm2.4-31.41v-3.8h12.71v3.8h-12.71Zm0,15.84v-3.83h11.5v3.83h-11.5Zm0,15.57v-3.8h12.71v3.8h-12.71Z"/><path class="b" d="M137.85,52.7V17.49h4.04V52.7h-4.04Zm2.54-13.66v-3.8h7.1c1.02,0,1.81-.34,2.37-1.02,.56-.68,.85-1.62,.85-2.83v-6.13c0-1.28-.28-2.26-.84-2.94-.56-.69-1.35-1.03-2.38-1.03h-7.1v-3.8h6.95c1.58,0,2.93,.3,4.04,.91,1.11,.61,1.96,1.48,2.54,2.63,.58,1.15,.87,2.54,.87,4.19v6.27c0,1.58-.29,2.94-.88,4.07-.59,1.13-1.44,1.99-2.56,2.59-1.11,.6-2.45,.9-4.02,.9h-6.95Z"/><path class="b" d="M159.76,52.7V17.49h4.04V52.7h-4.04Zm2.91,0v-3.8h6.34c1.03,0,1.84-.26,2.41-.79s.86-1.26,.86-2.19v-5.42c0-1.37-.33-2.43-.99-3.17-.66-.74-1.5-1.11-2.52-1.11h-6.1v-3.78h6.1c.97,0,1.72-.33,2.25-1.01,.53-.67,.8-1.62,.8-2.84v-4.33c0-.94-.27-1.66-.8-2.18-.53-.52-1.27-.78-2.2-.78h-6.15v-3.8h6.03c2.29,0,4.06,.57,5.3,1.71,1.24,1.14,1.87,2.75,1.87,4.83v4.21c0,1.66-.33,3.04-1,4.12-.67,1.08-1.63,1.77-2.87,2.06,1.39,.26,2.46,.94,3.21,2.06s1.13,2.58,1.13,4.38v5.13c0,2.13-.61,3.78-1.82,4.95-1.21,1.17-2.93,1.76-5.16,1.76h-6.68Z"/><path class="b" d="M197.86,52.68h-3.83V25.6l.58,.63-10.97,26.45h-3.08V17.49h3.83v27.24l-.58-.63,11.02-26.62h3.03V52.68Z"/><path class="b" d="M202.7,52.7V17.49h4.04V52.7h-4.04Zm2.54-13.66v-3.8h7.1c1.02,0,1.81-.34,2.37-1.02,.56-.68,.85-1.62,.85-2.83v-6.13c0-1.28-.28-2.26-.84-2.94-.56-.69-1.35-1.03-2.38-1.03h-7.1v-3.8h6.95c1.58,0,2.93,.3,4.04,.91,1.11,.61,1.96,1.48,2.54,2.63,.58,1.15,.87,2.54,.87,4.19v6.27c0,1.58-.29,2.94-.88,4.07-.59,1.13-1.44,1.99-2.56,2.59-1.11,.6-2.45,.9-4.02,.9h-6.95Z"/><path class="b" d="M220.74,52.7l8.14-35.21h4.21l8.14,35.21h-4.41l-5.84-29.67-5.84,29.67h-4.41Zm4.87-8.11v-3.8h11.21v3.8h-11.21Z"/><path class="b" d="M249.73,53.07c-1.47,0-2.82-.31-4.04-.94-1.23-.63-2.23-1.52-3-2.66l2.95-2.52c.55,.71,1.2,1.26,1.95,1.65,.75,.39,1.54,.58,2.36,.58,1.13,0,2.01-.36,2.64-1.08,.63-.72,.94-1.72,.94-3.02V17.49h4.04v27.66c0,2.52-.68,4.47-2.05,5.85-1.37,1.38-3.3,2.07-5.8,2.07Z"/></g></svg>